<svg height="496pt" viewBox="0 0 496 496.00168" width="496pt" xmlns="http://www.w3.org/2000/svg"><path d="m360 256-112-248-104 248 104-40zm0 0" fill="#57a4ff"/><g fill="#004fac"><path d="m247.890625 0c-3.183594.046875-6.035156 1.972656-7.265625 4.90625l-104 248c-1.242188 2.957031-.601562 6.367188 1.628906 8.671875 2.234375 2.300781 5.625 3.046875 8.617188 1.894531l101.234375-38.941406 109.207031 39c.863281.3125 1.773438.472656 2.6875.46875 2.714844 0 5.246094-1.378906 6.714844-3.660156 1.472656-2.28125 1.691406-5.152344.574218-7.625l-112-248c-1.289062-2.921875-4.207031-4.777344-7.398437-4.714844zm2.796875 208.472656c-.859375-.308594-1.769531-.46875-2.6875-.472656-.980469 0-1.953125.179688-2.871094.53125l-86.503906 33.277344 89.648438-213.765625 96.6875 214.09375zm0 0"/><path d="m488 240h-16.296875c-3.070313-85.421875-54.433594-161.671875-132.4375-196.621094-4.035156-1.804687-8.765625.003906-10.570313 4.039063-1.800781 4.035156.007813 8.765625 4.042969 10.566406 72.25 32.371094 119.90625 102.90625 122.964844 182.015625h-31.703125c-4.417969 0-8 3.582031-8 8 0 4.421875 3.582031 8 8 8h31.800781c-4.304687 108.515625-91.285156 195.496094-199.800781 199.800781v-31.800781c0-4.417969-3.582031-8-8-8s-8 3.582031-8 8v31.800781c-108.511719-4.304687-195.496094-91.285156-199.800781-199.800781h31.800781c4.417969 0 8-3.578125 8-8 0-4.417969-3.582031-8-8-8h-31.703125c3.0625-79.109375 50.714844-149.644531 122.96875-182.015625 4.03125-1.800781 5.84375-6.53125 4.039063-10.566406-1.800782-4.035157-6.535157-5.84375-10.566407-4.039063-78.007812 34.949219-129.367187 111.199219-132.441406 196.621094h-16.296875c-4.417969 0-8 3.582031-8 8 0 4.421875 3.582031 8 8 8h16.199219c4.328125 117.34375 98.457031 211.472656 215.800781 215.800781v16.199219c0 4.421875 3.582031 8 8 8s8-3.578125 8-8v-16.199219c117.34375-4.328125 211.472656-98.457031 215.800781-215.800781h16.199219c4.417969 0 8-3.578125 8-8 0-4.417969-3.582031-8-8-8zm0 0"/></g></svg>