<svg height="512" viewBox="0 0 64 64" width="512" xmlns="http://www.w3.org/2000/svg"><g id="pray"><g fill="#1aa400"><path d="m59.13 22.89a3.35 3.35 0 0 0 -4.13-.35c0-5 .3-6.2-1-7.52a3.67 3.67 0 0 0 -4.15-.6 3.51 3.51 0 0 0 -6.83.92 3.5 3.5 0 0 0 -5 3.16c0 1.5.26.5-1.5.5a3.5 3.5 0 0 0 -3.52 3.5v15a13.5 13.5 0 0 0 27 0c0-13.33.3-13.5-.87-14.61zm-1.13 14.61a11.5 11.5 0 1 1 -23 0v-15a1.5 1.5 0 0 1 2.56-1.06 2 2 0 0 1 .44 1.31 1 1 0 0 0 1.92 0c.06-.15 0 .11 0-4.25a1.5 1.5 0 0 1 3 0 1 1 0 0 0 2 0v-3a1.5 1.5 0 0 1 2.56-1.06c.6.6.44 1.23.44 3.06a1 1 0 0 0 2 0 1.5 1.5 0 0 1 2.56-1.06c.63.62.44.64.44 9.56a1 1 0 0 0 2 0c0-1.65 1.94-2.5 2.71-1.69.51.41.37-.31.37 13.19z"/><path d="m53 35v-9a1 1 0 0 1 2 0v9a1 1 0 0 1 -2 0z"/><path d="m48 30v-13a1 1 0 0 1 2 0v13a1 1 0 0 1 -2 0z"/><path d="m43 30v-12a1 1 0 0 1 2 0v12a1 1 0 0 1 -2 0z"/><path d="m38 32v-9a1 1 0 0 1 2 0v9a1 1 0 0 1 -2 0z"/><path d="m37.29 32.29c3.84-3.83 7.79-3.29 12.71-3.29a1 1 0 0 1 0 2c-4.74 0-8-.54-11.29 2.71a1 1 0 0 1 -1.42-1.42z"/><path d="m44 43c-2.75 0-.21-9 10-9a1 1 0 0 1 0 2c-5 0-9 2.69-9 6a1 1 0 0 1 -1 1z"/><path d="m27.5 19c-1.78 0-1.5 1-1.5-.5a3.5 3.5 0 0 0 -5-3.16 3.5 3.5 0 0 0 -6.83-.92 3.52 3.52 0 0 0 -4.17.58c-1.28 1.28-1 2.2-1 7.52a3.36 3.36 0 0 0 -4.11.33c-1.19 1.15-.89 1.02-.89 14.65a13.5 13.5 0 0 0 27 0v-15a3.5 3.5 0 0 0 -3.5-3.5zm1.5 18.5a11.5 11.5 0 0 1 -23 0c0-13.58-.13-12.79.31-13.21.74-.78 2.69.05 2.69 1.71a1 1 0 0 0 2 0v-8.5a1.5 1.5 0 0 1 3 0 1 1 0 0 0 2 0c0-1.65-.16-2.48.44-3.06a1.49 1.49 0 0 1 2.12 0c.61.61.44 1.15.44 4.06a1 1 0 0 0 2 0 1.5 1.5 0 0 1 3 0v4a1 1 0 0 0 2 0 1.5 1.5 0 0 1 3 0z"/><path d="m9 35v-9a1 1 0 0 1 2 0v9a1 1 0 0 1 -2 0z"/><path d="m14 30v-13a1 1 0 0 1 2 0v13a1 1 0 0 1 -2 0z"/><path d="m19 30v-12a1 1 0 0 1 2 0v12a1 1 0 0 1 -2 0z"/><path d="m24 32v-9a1 1 0 0 1 2 0v9a1 1 0 0 1 -2 0z"/><path d="m25.29 33.71c-3.24-3.24-6.54-2.71-11.29-2.71a1 1 0 0 1 0-2c4.92 0 8.87-.54 12.71 3.29a1 1 0 0 1 -1.42 1.42z"/><path d="m20 43a1 1 0 0 1 -1-1c0-3.31-4-6-9-6a1 1 0 0 1 0-2c10.2 0 12.76 9 10 9z"/></g><path d="m60 34.5c0-10.22.29-10.47-.87-11.61a3.35 3.35 0 0 0 -4.13-.35c0-5 .3-6.2-1-7.52a3.67 3.67 0 0 0 -4.15-.6 3.51 3.51 0 0 0 -6.83.92 3.5 3.5 0 0 0 -5 3.16c0 1.5.26.5-1.5.5a3.5 3.5 0 0 0 -3.52 3.5v15a13.52 13.52 0 0 0 11.2 13.3l-6.7 6.7a21.92 21.92 0 0 1 -33.5-28v8a13.5 13.5 0 0 0 27 0v-15a3.51 3.51 0 0 0 -5-3.17v-.83a3.5 3.5 0 0 0 -5-3.16 3.44 3.44 0 0 0 -1-2.34l6.5-6.5a21.92 21.92 0 0 1 33.5 28z" fill="#ffc53e" opacity=".3"/></g></svg>