<svg id="Capa_1" enable-background="new 0 0 512 512" height="512" viewBox="0 0 512 512" width="512" xmlns="http://www.w3.org/2000/svg"><g><g><g><path d="m70.491 360.728h161.584v143.772h-161.584z" fill="#99f5d2"/></g><g><path d="m213.186 360.728h18.889v143.772h-18.889z" fill="#00f0a3"/></g><g><path d="m217.508 61.091c-12.332 0-22.329 9.997-22.329 22.329v-26.795c0-12.332-9.997-22.329-22.329-22.329-12.332 0-22.329 9.997-22.329 22.329v-26.796c0-12.332-9.997-22.329-22.329-22.329-12.332 0-22.329 9.997-22.329 22.329v26.795c0-12.332-9.997-22.329-22.329-22.329s-22.329 9.997-22.329 22.329v136.011l-15.969-15.965c-8.633-8.633-22.629-8.633-31.261 0-8.633 8.633-8.633 22.629 0 31.261l47.227 47.227v.102c0 11.093 2.583 22.033 7.544 31.955l2.776 5.553c4.961 9.922 7.544 20.862 7.544 31.955v36.005h142.909v-36.005c0-11.093 2.583-22.033 7.544-31.955l2.776-5.553c4.961-9.922 7.544-20.862 7.544-31.955v-171.84c-.002-12.332-9.999-22.329-22.331-22.329z" fill="#fcd0a3"/></g><g><path d="m223.375 61.875v184.885c0 11.093-2.583 22.033-7.544 31.955l-2.776 5.553c-4.961 9.922-7.544 20.862-7.544 31.955v44.505h16.462v-36.005c0-11.093 2.583-22.033 7.544-31.955l2.776-5.553c4.961-9.922 7.544-20.862 7.544-31.955v-171.84c0-10.301-6.977-18.968-16.462-21.545z" fill="#ffb983"/></g><g><path d="m141.613 178.212h8.906v-148.383c0-10.301-6.977-18.968-16.462-21.545v162.372c.001 4.174 3.384 7.556 7.556 7.556z" fill="#ffb983"/></g><g><path d="m195.174 56.621v121.59h-8.897c-4.173 0-7.556-3.383-7.556-7.556v-135.567c9.483 2.569 16.453 11.239 16.453 21.533z" fill="#ffb983"/></g><g><path d="m105.856 56.621v121.59h-8.906c-4.173 0-7.556-3.383-7.556-7.556v-135.577c9.492 2.569 16.462 11.249 16.462 21.543z" fill="#ffb983"/></g><g><circle cx="115.016" cy="411.729" fill="#fcee56" r="14.167"/></g></g><g><g><path d="m279.925 360.728h161.584v143.772h-161.584z" fill="#99f5d2"/></g><g><path d="m422.619 360.728h18.889v143.772h-18.889z" fill="#00f0a3"/></g><g><path d="m294.492 61.091c12.332 0 22.329 9.997 22.329 22.329v-26.795c0-12.332 9.997-22.329 22.329-22.329 12.332 0 22.329 9.997 22.329 22.329v-26.796c0-12.332 9.997-22.329 22.329-22.329 12.332 0 22.329 9.997 22.329 22.329v26.795c0-12.332 9.997-22.329 22.329-22.329s22.329 9.997 22.329 22.329v136.011l15.966-15.966c8.633-8.633 22.629-8.633 31.261 0 8.633 8.633 8.633 22.629 0 31.261l-47.227 47.227v.102c0 11.093-2.583 22.033-7.544 31.955l-2.776 5.553c-4.961 9.922-7.544 20.862-7.544 31.955v36.005h-142.905v-36.005c0-11.093-2.583-22.033-7.544-31.955l-2.776-5.553c-4.961-9.922-7.544-20.862-7.544-31.955v-171.839c.001-12.332 9.998-22.329 22.33-22.329z" fill="#fcd0a3"/></g><g><g><path d="m439.451 243.963c-3.035 3.068-4.99 7.077-5.365 11.376-.781 8.967-3.242 17.767-7.273 25.829l-2.776 5.553c-4.961 9.922-7.544 20.862-7.544 31.955v42.052h16.441v-36.005c0-11.093 2.583-22.033 7.544-31.955l2.776-5.553c4.961-9.922 7.544-20.862 7.544-31.955v-.102l47.227-47.227c7.238-7.238 8.383-18.238 3.482-26.694z" fill="#ffb983"/></g></g><g><path d="m397.233 178.212h8.906v-148.383c0-10.301-6.977-18.968-16.462-21.545v162.372c0 4.174 3.383 7.556 7.556 7.556z" fill="#ffb983"/></g><g><path d="m361.476 56.621v121.59h-8.897c-4.173 0-7.556-3.383-7.556-7.556v-135.567c9.483 2.569 16.453 11.239 16.453 21.533z" fill="#ffb983"/></g><g><path d="m307.922 178.211h8.897v-94.882c-.041-10.258-7-18.88-16.452-21.452v108.778c0 4.174 3.382 7.556 7.555 7.556z" fill="#ffb983"/></g><g><path d="m450.798 56.621v136.014l-16.462 16.363v-173.92c9.492 2.569 16.462 11.249 16.462 21.543z" fill="#ffb983"/></g><g><circle cx="396.984" cy="411.729" fill="#fcee56" r="14.167"/></g></g><g><path d="m217.508 53.591c-5.394 0-10.458 1.439-14.829 3.954v-.92c0-16.448-13.381-29.83-29.83-29.83-5.394 0-10.459 1.439-14.83 3.954v-.92c.001-16.448-13.381-29.829-29.829-29.829s-29.829 13.381-29.829 29.829v.92c-4.371-2.515-9.436-3.954-14.83-3.954-16.448 0-29.83 13.382-29.83 29.83v117.904l-3.163-3.163c-5.592-5.592-13.026-8.671-20.934-8.671s-15.342 3.079-20.934 8.671c-5.59 5.592-8.67 13.026-8.67 20.934s3.08 15.343 8.671 20.935l45.091 45.091c.44 11.165 3.279 22.252 8.275 32.244l2.776 5.554c4.417 8.834 6.752 18.725 6.752 28.601v28.505h-1.074c-4.142 0-7.5 3.357-7.5 7.5v143.77c0 4.143 3.358 7.5 7.5 7.5h161.584c4.142 0 7.5-3.357 7.5-7.5v-143.771c0-4.143-3.358-7.5-7.5-7.5h-2.602v-28.505c0-9.876 2.335-19.767 6.752-28.601l2.776-5.553c5.453-10.906 8.335-23.116 8.335-35.31v-36.76c0-4.143-3.358-7.5-7.5-7.5s-7.5 3.357-7.5 7.5v36.761c0 9.877-2.334 19.767-6.751 28.601l-2.776 5.553c-5.454 10.907-8.336 23.116-8.336 35.31v28.505h-127.908v-28.505c0-12.193-2.882-24.402-8.335-35.309l-2.776-5.554c-4.417-8.834-6.752-18.725-6.752-28.601v-.103c0-1.989-.79-3.896-2.197-5.304l-47.227-47.228c-2.759-2.757-4.278-6.425-4.278-10.326 0-3.9 1.519-7.568 4.278-10.327 2.759-2.758 6.426-4.277 10.327-4.277s7.569 1.52 10.328 4.278l44.495 44.323c.891.886 1.991 1.534 3.198 1.884l10.929 3.17c20.886 6.058 35.472 25.476 35.472 47.222v17.541c0 4.143 3.358 7.5 7.5 7.5s7.5-3.357 7.5-7.5v-17.541c0-28.38-19.037-53.723-46.293-61.628l-9.09-2.637-24.941-24.792v-132.891c0-8.178 6.652-14.83 14.83-14.83s14.83 6.652 14.83 14.83v121.586c0 4.143 3.358 7.5 7.5 7.5s7.5-3.357 7.5-7.5v-148.382c0-8.177 6.652-14.829 14.829-14.829s14.83 6.652 14.83 14.829v148.382c0 4.143 3.358 7.5 7.5 7.5s7.5-3.357 7.5-7.5v-121.586c0-8.178 6.652-14.83 14.83-14.83s14.83 6.652 14.83 14.83v121.586c0 4.143 3.358 7.5 7.5 7.5s7.5-3.357 7.5-7.5v-94.791c0-8.177 6.652-14.829 14.829-14.829s14.83 6.652 14.83 14.829v99.987c0 4.143 3.358 7.5 7.5 7.5s7.5-3.357 7.5-7.5v-99.987c-.004-16.448-13.385-29.829-29.833-29.829zm7.068 314.638v128.771h-146.585v-128.771z"/><path d="m115.016 433.396c11.947 0 21.667-9.72 21.667-21.667s-9.72-21.667-21.667-21.667-21.667 9.72-21.667 21.667 9.72 21.667 21.667 21.667zm0-28.333c3.676 0 6.667 2.991 6.667 6.667s-2.991 6.667-6.667 6.667-6.667-2.991-6.667-6.667 2.991-6.667 6.667-6.667z"/><path d="m503.329 171.367c-5.591-5.593-13.026-8.672-20.934-8.672s-15.342 3.079-20.934 8.671l-3.163 3.163v-36.387c0-4.143-3.358-7.5-7.5-7.5s-7.5 3.357-7.5 7.5v51.373l-24.941 24.792-9.09 2.637c-27.257 7.905-46.293 33.248-46.293 61.628v17.541c0 4.143 3.358 7.5 7.5 7.5s7.5-3.357 7.5-7.5v-17.541c0-21.746 14.586-41.164 35.472-47.222l10.929-3.17c1.207-.35 2.307-.998 3.198-1.884l44.495-44.323c2.759-2.759 6.426-4.278 10.328-4.278 3.901 0 7.568 1.52 10.327 4.278s4.278 6.426 4.278 10.326c0 3.901-1.519 7.569-4.278 10.327l-47.227 47.228c-1.407 1.407-2.197 3.314-2.197 5.304v.103c0 9.876-2.335 19.767-6.752 28.602l-2.775 5.552c-5.454 10.907-8.336 23.116-8.336 35.31v28.505h-127.91v-28.505c0-12.193-2.882-24.402-8.336-35.31l-2.776-5.553c-4.417-8.834-6.751-18.724-6.751-28.601v-171.841c0-8.177 6.652-14.829 14.83-14.829 8.177 0 14.829 6.652 14.829 14.829v94.791c0 4.143 3.358 7.5 7.5 7.5s7.5-3.357 7.5-7.5v-121.586c0-8.178 6.652-14.83 14.83-14.83s14.83 6.652 14.83 14.83v121.586c0 4.143 3.358 7.5 7.5 7.5s7.5-3.357 7.5-7.5v-148.382c0-8.177 6.652-14.829 14.83-14.829 8.177 0 14.829 6.652 14.829 14.829v148.382c0 4.143 3.358 7.5 7.5 7.5s7.5-3.357 7.5-7.5v-121.586c0-8.178 6.652-14.83 14.83-14.83 7.9 0 14.83 6.404 14.83 13.705v47.446c0 4.143 3.358 7.5 7.5 7.5s7.5-3.357 7.5-7.5v-47.446c0-15.56-13.66-28.705-29.83-28.705-5.394 0-10.459 1.439-14.83 3.954v-.92c-.002-16.448-13.383-29.829-29.831-29.829s-29.83 13.381-29.83 29.829v.92c-4.371-2.515-9.436-3.954-14.83-3.954-16.448 0-29.83 13.382-29.83 29.83v.92c-4.371-2.515-9.435-3.954-14.829-3.954-16.448 0-29.83 13.381-29.83 29.829v171.841c0 12.193 2.882 24.403 8.335 35.31l2.776 5.553c4.417 8.834 6.752 18.725 6.752 28.601v28.505h-2.602c-4.142 0-7.5 3.357-7.5 7.5v54.405c0 4.143 3.358 7.5 7.5 7.5s7.5-3.357 7.5-7.5v-46.905h146.584v128.77h-146.582v-46.75c0-4.143-3.358-7.5-7.5-7.5s-7.5 3.357-7.5 7.5v54.25c0 4.143 3.358 7.5 7.5 7.5h161.584c4.142 0 7.5-3.357 7.5-7.5v-143.771c0-4.143-3.358-7.5-7.5-7.5h-1.074v-28.505c0-9.876 2.335-19.767 6.752-28.602l2.775-5.552c4.997-9.993 7.835-21.08 8.275-32.245l45.091-45.091c5.593-5.591 8.673-13.026 8.673-20.934s-3.08-15.342-8.671-20.933z"/><path d="m418.651 411.729c0-11.947-9.72-21.667-21.667-21.667s-21.667 9.72-21.667 21.667 9.72 21.667 21.667 21.667 21.667-9.719 21.667-21.667zm-28.334 0c0-3.676 2.991-6.667 6.667-6.667s6.667 2.991 6.667 6.667-2.991 6.667-6.667 6.667-6.667-2.991-6.667-6.667z"/></g></g></svg>