<svg viewBox="0 0 64 64" xmlns="http://www.w3.org/2000/svg"><g id="kabah"><path d="m32 56 8.85-1.84-3.35 3.35a21.92 21.92 0 0 1 -31-31l1.5-1.51v26z" fill="#ffc53e" opacity=".3"/><path d="m63.92 22a21.85 21.85 0 0 1 -6.42 15.5l-1.5 1.5v-24l-24-7-9.87 2.88 4.37-4.37c13.85-13.85 37.42-3.85 37.42 15.49z" fill="#ffc53e" opacity=".3"/><path d="m56.28 14c-25.59-7.42-24.13-7-24.51-7s-6 1.73-24 7a1 1 0 0 0 -.77 1v7a1 1 0 0 0 2 0v-6.25l22-6.42v7.67a1 1 0 0 0 2 0v-7.67l22 6.42v6.25a1 1 0 0 0 2 0v-7a1 1 0 0 0 -.72-1z" fill="#1aa400"/><path d="m57 28v23a1 1 0 0 1 -.8 1l-24 5c-.3.06 1.29.35-24.4-5a1 1 0 0 1 -.8-1v-23a1 1 0 0 1 2 0v22.19l22 4.58v-30.77a1 1 0 0 1 2 0v30.77l22-4.58v-22.19a1 1 0 0 1 2 0z" fill="#1aa400"/><g fill="#ffc53e"><path d="m10.08 33.83-3 .17c-.08 0-.08.3-.08-2l2.91-.16a1 1 0 0 1 .17 1.99z"/><path d="m14.2 31.48a1 1 0 0 0 .08 2 1 1 0 1 0 -.08-2z"/><path d="m25.63 30.53a1 1 0 0 0 .17 2 1 1 0 0 0 -.17-2z"/><path d="m21.35 30.88c-3.09.26-3.19.18-3.54.59a1 1 0 0 0 .76 1.65l2.94-.24a1 1 0 0 0 -.16-2z"/><path d="m57 32c0 2.22 0 2-.08 2l-3-.17a1 1 0 0 1 .17-2z"/><path d="m49.8 31.48a1 1 0 1 0 .91 1.08 1 1 0 0 0 -.91-1.08z"/><path d="m45.51 31.12-2.86-.24a1 1 0 0 0 -.16 2l2.94.24a1 1 0 0 0 .08-2z"/><path d="m38.36 30.53a1 1 0 1 0 -.08 2 1 1 0 0 0 .08-2z"/><path d="m34.08 30.17a14.12 14.12 0 0 0 -4.16 0 1 1 0 0 0 .09 2l1.99-.17 2 .17a1 1 0 0 0 .08-2z"/><path d="m57 21.19-25-5.19-25 5.19v8l25-4.19 25 4.17zm-26-3v4.92l-22 3.71v-4zm2 4.92v-4.88l22 4.58v4z"/></g></g></svg>