<svg id="Capa_1" enable-background="new 0 0 512 512" height="512" viewBox="0 0 512 512" width="512" xmlns="http://www.w3.org/2000/svg"><g><g><circle cx="256" cy="256" fill="#97e4f9" r="248.5"/></g><g><path d="m418.637 68.109c37.76 43.586 60.609 100.443 60.609 162.637 0 137.243-111.257 248.5-248.5 248.5-62.194 0-119.052-22.848-162.637-60.609 45.564 52.594 112.842 85.863 187.891 85.863 137.243 0 248.5-111.257 248.5-248.5 0-75.049-33.269-142.327-85.863-187.891z" fill="#62d8f9"/></g><g><path d="m256 458.033c-53.964 0-104.7-21.015-142.859-59.174s-59.174-88.894-59.174-142.859 21.015-104.7 59.174-142.858c38.159-38.16 88.895-59.175 142.859-59.175s104.7 21.015 142.859 59.174 59.174 88.894 59.174 142.859-21.015 104.7-59.174 142.858c-38.159 38.16-88.895 59.175-142.859 59.175z" fill="#daeaef"/></g><g><path d="m256 213.573h52.528l-52.528-101.016-52.529 101.016z" fill="#fc8086"/></g><g><path d="m256 213.573h52.528l-52.528-101.016z" fill="#fb636f"/></g><g><path d="m256 298.427h52.528l-52.528 101.016-52.529-101.016z" fill="#bebebe"/></g><g><path d="m256 298.427h52.528l-52.528 101.016z" fill="#9b9b9b"/></g><g><g><path d="m256 321.95-70.711-12.575v-106.75l70.711-12.575z" fill="#595959"/></g><g><path d="m256 226.705v32.325l-70.711 3.587v-30.861z" fill="#fcee56"/></g><g><path d="m256 321.95 70.711-12.575v-106.75l-70.711-12.575z" fill="#434343"/></g><g><path d="m256 226.705v32.325l70.711 3.587v-30.861z" fill="#fbd307"/></g></g><g><path d="m437.02 74.98c-48.352-48.351-112.64-74.98-181.02-74.98s-132.668 26.629-181.02 74.98c-48.351 48.353-74.98 112.64-74.98 181.02s26.629 132.667 74.98 181.02c48.352 48.351 112.64 74.98 181.02 74.98 61.636 0 121.188-22.218 167.688-62.56 3.129-2.714 3.465-7.451.75-10.58-2.714-3.128-7.451-3.464-10.58-.75-43.772 37.976-99.834 58.89-157.858 58.89-132.888 0-241-108.112-241-241s108.112-241 241-241 241 108.112 241 241c0 57.894-20.831 113.859-58.655 157.587-2.71 3.133-2.367 7.869.766 10.579 3.132 2.709 7.869 2.368 10.578-.766 40.182-46.453 62.311-105.903 62.311-167.4 0-68.38-26.629-132.667-74.98-181.02z"/><path d="m206.648 320.791 42.698 82.112c1.291 2.482 3.856 4.04 6.654 4.04s5.363-1.558 6.654-4.04l42.698-82.112 22.673-4.032c3.579-.637 6.187-3.749 6.187-7.384v-106.75c0-3.636-2.607-6.748-6.187-7.384l-22.673-4.032-42.698-82.112c-1.291-2.482-3.856-4.04-6.654-4.04s-5.363 1.558-6.654 4.04l-42.698 82.112-22.673 4.032c-3.579.637-6.187 3.749-6.187 7.384v106.749c0 3.636 2.607 6.748 6.187 7.384zm112.564-66.063-55.712-2.827v-17.141l55.712 3.979zm-70.712-2.827-55.712 2.827v-15.989l55.712-3.979zm-55.712 17.846 55.712-2.826v46.078l-55.712-9.908zm63.212 113.44-30.723-59.082 29.409 5.23c.855.158 1.773.171 2.627 0l29.409-5.23zm7.5-70.188v-46.079l55.712 2.826v33.344zm55.712-89.298-55.712-3.979v-20.72l55.712 9.908zm-63.212-94.888 30.723 59.082-29.409-5.23c-.855-.152-1.772-.154-2.627 0l-29.409 5.23zm-7.5 70.188v20.72l-55.712 3.979v-14.792z"/><path d="m105.762 120.708c-3.173-2.663-7.904-2.246-10.565.929-31.424 37.479-48.729 85.196-48.729 134.363 0 55.969 21.795 108.587 61.37 148.162 39.575 39.576 92.193 61.371 148.162 61.371s108.587-21.795 148.162-61.371c39.575-39.575 61.37-92.193 61.37-148.162s-21.795-108.587-61.37-148.162-92.193-61.371-148.162-61.371c-49.171 0-96.894 17.309-134.376 48.739-3.174 2.662-3.589 7.392-.928 10.566s7.391 3.589 10.566.928c6.725-5.639 13.736-10.767 20.998-15.381l6.329 10.963c1.389 2.406 3.91 3.751 6.502 3.751 1.272 0 2.563-.324 3.743-1.006 3.587-2.071 4.816-6.658 2.745-10.245l-6.352-11.002c25.504-13.537 53.675-21.076 83.272-22.165v12.557c0 4.142 3.357 7.5 7.5 7.5s7.5-3.358 7.5-7.5v-12.549c29.458 1.11 57.761 8.739 83.242 22.209l-6.322 10.95c-2.071 3.587-.842 8.174 2.745 10.245 1.182.682 2.471 1.006 3.743 1.006 2.592 0 5.113-1.346 6.502-3.751l6.313-10.935c12.108 7.66 23.453 16.72 33.831 27.098 10.379 10.378 19.438 21.724 27.099 33.832l-10.935 6.313c-3.587 2.071-4.816 6.658-2.745 10.245 1.39 2.406 3.91 3.751 6.502 3.751 1.272 0 2.563-.324 3.743-1.006l10.949-6.322c13.469 25.48 21.099 53.783 22.208 83.241h-12.548c-4.143 0-7.5 3.358-7.5 7.5s3.357 7.5 7.5 7.5h12.548c-1.11 29.458-8.739 57.761-22.208 83.241l-10.949-6.322c-3.587-2.072-8.175-.842-10.245 2.745-2.071 3.587-.842 8.174 2.745 10.245l10.935 6.313c-7.66 12.108-16.72 23.454-27.099 33.832-10.378 10.379-21.724 19.438-33.831 27.098l-6.313-10.935c-2.07-3.587-6.659-4.817-10.245-2.745-3.587 2.071-4.816 6.658-2.745 10.245l6.322 10.95c-25.48 13.47-53.783 21.099-83.242 22.209v-12.548c0-4.142-3.357-7.5-7.5-7.5s-7.5 3.358-7.5 7.5v12.548c-29.458-1.11-57.761-8.739-83.242-22.209l6.322-10.95c2.071-3.587.842-8.174-2.745-10.245-3.589-2.072-8.175-.842-10.245 2.745l-6.313 10.935c-12.108-7.66-23.453-16.72-33.831-27.098-10.379-10.378-19.438-21.724-27.099-33.832l10.935-6.313c3.587-2.071 4.816-6.658 2.745-10.245-2.072-3.587-6.66-4.816-10.245-2.745l-10.949 6.322c-13.469-25.48-21.099-53.783-22.208-83.241h12.548c4.143 0 7.5-3.358 7.5-7.5s-3.357-7.5-7.5-7.5h-12.558c1.089-29.598 8.628-57.769 22.164-83.272l11.003 6.353c1.181.682 2.471 1.006 3.743 1.006 2.592 0 5.113-1.345 6.502-3.751 2.071-3.587.842-8.174-2.745-10.245l-10.963-6.33c4.611-7.258 9.737-14.266 15.372-20.987 2.662-3.173 2.247-7.903-.928-10.565z"/></g></g></svg>