<svg id="Capa_1" enable-background="new 0 0 512 512" height="512" viewBox="0 0 512 512" width="512" xmlns="http://www.w3.org/2000/svg"><g><g><path d="m404.494 404.494h37.376v79.803h-37.376z" fill="#595959"/></g><g><path d="m110.536 484.297c-22.316 0-40.407-17.08-40.407-39.396s18.091-40.407 40.407-40.407h293.957v79.803z" fill="#daeaef"/></g><g><path d="m110.536 484.297c-22.316 0-40.407-17.08-40.407-39.396s18.091-40.407 40.407-40.407h293.957v79.803z" fill="#daeaef"/></g><g><path d="m404.494 404.494h-20.203v52.633c0 5.579-15.634 10.102-21.213 10.102h-252.542c-19.36 0-35.531-13.618-39.478-31.796-.674 3.071-1.002 6.286-.915 9.618.577 22.02 19.09 39.351 41.117 39.351h293.233l-.057-.122.057.017v-79.803z" fill="#a8d0d5"/></g><g><path d="m70.13 47.907c0-22.316 18.091-40.407 40.406-40.407h331.334v396.994h-331.334c-22.316 0-40.407 18.091-40.407 40.407v-396.994z" fill="#fc8086"/></g><g><path d="m357.016 289.335v-140.412c0-51.518-59.6-56.569-80.813-98.996-21.213 42.427-80.813 47.478-80.813 98.996v140.413h161.626z" fill="#fcee56"/></g><g><path d="m308.484 183.818 14.187-14.187-14.187-14.187v-18.094h-18.094l-14.187-14.186-14.187 14.186h-18.094v18.094l-14.186 14.187 14.186 14.187v18.094h18.094l14.187 14.187 14.187-14.187h18.094z" fill="#fbd307"/></g><g><path d="m70.13 47.907v396.993c0-22.316 18.091-40.407 40.407-40.407v-396.993c-22.316 0-40.407 18.091-40.407 40.407z" fill="#fcee56"/></g><g><path d="m416.616 7.5h25.254v396.994h-25.254z" fill="#fb636f"/></g><g><path d="m195.39 322.671h161.626v30.305h-161.626z" fill="#fcee56"/></g><g><path d="m183.268 504.5-32.325-20.203-32.325 20.203v-58.589h64.65z" fill="#fc8086"/></g><g><path d="m308.484 129.85h-14.987l-11.99-11.99c-2.929-2.929-7.678-2.929-10.606 0l-11.99 11.99h-14.988c-4.142 0-7.5 3.358-7.5 7.5v14.988l-11.99 11.99c-2.929 2.929-2.929 7.677 0 10.606l11.99 11.99v14.988c0 4.142 3.358 7.5 7.5 7.5h14.988l11.99 11.99c1.464 1.465 3.384 2.197 5.303 2.197s3.839-.732 5.303-2.197l11.99-11.99h14.987c4.142 0 7.5-3.358 7.5-7.5v-14.988l11.99-11.99c1.407-1.406 2.197-3.314 2.197-5.303s-.79-3.897-2.197-5.303l-11.99-11.99v-14.988c0-4.142-3.358-7.5-7.5-7.5zm-5.303 48.665c-1.407 1.406-2.197 3.314-2.197 5.303v10.594h-10.594c-1.989 0-3.896.79-5.303 2.197l-8.884 8.883-8.883-8.883c-1.406-1.407-3.314-2.197-5.303-2.197h-10.594v-10.594c0-1.989-.79-3.896-2.197-5.303l-8.883-8.884 8.883-8.883c1.407-1.406 2.197-3.314 2.197-5.303v-10.595h10.594c1.989 0 3.897-.79 5.303-2.197l8.883-8.883 8.884 8.883c1.407 1.407 3.314 2.197 5.303 2.197h10.594v10.594c0 1.989.79 3.897 2.197 5.303l8.883 8.883z"/><path d="m364.516 148.923c0-33.68-22.389-49.661-44.041-65.117-14.484-10.339-29.462-21.03-37.564-37.233-1.27-2.541-3.867-4.146-6.708-4.146s-5.438 1.605-6.708 4.146c-8.102 16.203-23.08 26.895-37.564 37.233-21.652 15.456-44.041 31.437-44.041 65.117v67.176c0 4.142 3.358 7.5 7.5 7.5s7.5-3.358 7.5-7.5v-67.176c0-25.958 17.497-38.447 37.756-52.908 12.74-9.094 25.825-18.434 35.557-31.752 9.732 13.318 22.817 22.658 35.557 31.752 20.259 14.461 37.756 26.95 37.756 52.908v132.913h-146.626v-30.684c0-4.142-3.358-7.5-7.5-7.5s-7.5 3.358-7.5 7.5v38.184c0 4.142 3.358 7.5 7.5 7.5h161.626c4.142 0 7.5-3.358 7.5-7.5z"/><path d="m441.87 77.77c4.142 0 7.5-3.358 7.5-7.5v-62.77c0-4.142-3.358-7.5-7.5-7.5h-331.333c-26.416 0-47.907 21.491-47.907 47.907v227.915c0 4.142 3.358 7.5 7.5 7.5s7.5-3.358 7.5-7.5v-227.915c0-15.564 10.865-28.63 25.407-32.034v381.717c-9.753 1.541-18.54 6.026-25.407 12.525v-99.258c0-4.142-3.358-7.5-7.5-7.5s-7.5 3.358-7.5 7.5v134.043c0 26.297 21.043 46.896 47.907 46.896h.581v12.704c0 2.727 1.479 5.238 3.864 6.56 2.384 1.321 5.298 1.245 7.611-.2l28.35-17.719 28.35 17.719c4.919 3.075 11.475-.574 11.475-6.36v-12.703h251.102c4.142 0 7.5-3.358 7.5-7.5v-379.011c0-4.142-3.358-7.5-7.5-7.5s-7.5 3.358-7.5 7.5v291.708h-316.333v-381.994h316.333v55.27c0 4.142 3.358 7.5 7.5 7.5zm-266.102 413.198-20.85-13.031c-1.216-.76-2.596-1.14-3.975-1.14s-2.759.38-3.975 1.14l-20.85 13.031v-37.558h49.65zm15-37.557h162.208c4.142 0 7.5-3.358 7.5-7.5s-3.358-7.5-7.5-7.5h-169.708-64.65c-4.142 0-7.5 3.358-7.5 7.5v30.886h-.581c-18.452 0-32.907-14.011-32.907-31.896 0-18.145 14.762-32.906 32.907-32.906h286.458v64.803h-206.227zm221.226 23.386v-64.803h22.376v64.803z"/><path d="m357.016 315.171h-161.626c-4.142 0-7.5 3.358-7.5 7.5v30.305c0 4.142 3.358 7.5 7.5 7.5h161.626c4.142 0 7.5-3.358 7.5-7.5v-30.305c0-4.142-3.358-7.5-7.5-7.5zm-7.5 30.305h-146.626v-15.305h146.626z"/></g></g></svg>