<svg viewBox="0 0 64 64" xmlns="http://www.w3.org/2000/svg"><g id="reading"><path d="m32 50.62 9.39 3-3.9 3.9a21.92 21.92 0 0 1 -31-31l1.51-1.52v16.54a2 2 0 0 0 1.39 1.9l3.61 1.15v9.67a1.74 1.74 0 0 0 1.74 1.74c.81 0 16.97-5.38 17.26-5.38z" fill="#ffc53e" opacity=".3"/><path d="m56 39.05v-24.32a2 2 0 0 0 -2.61-1.9l-3.39 1.08v-3a2 2 0 0 0 -2.72-1.86l-15.28 5.95-10.08-3.92 4.58-4.58c13.85-13.85 37.42-3.85 37.42 15.5 0 8.13-3.77 12.86-7.92 17.05z" fill="#ffc53e" opacity=".3"/><path d="m55.77 12.31c-1.6-1.17-3-.33-6.07.65a1 1 0 0 0 .6 1.9c3.63-1.15 3.75-1.33 4.29-.93s.41-1.46.41 27.61a1 1 0 0 1 -.7 1l-22.3 7.03-22.3-7.08a1 1 0 0 1 -.7-1c0-29.09-.18-27.18.41-27.61s.72-.2 4.29.93a1 1 0 0 0 .6-1.9c-3.16-1-4.5-1.8-6.07-.65a3 3 0 0 0 -1.23 2.47v26.81a3 3 0 0 0 2.09 2.86l2.91.92v8.94a2.74 2.74 0 0 0 2.74 2.74c.63 0-.45.28 17.26-5.33 17.84 5.65 16.64 5.33 17.26 5.33a2.74 2.74 0 0 0 2.74-2.74v-8.94l2.91-.92a3 3 0 0 0 2.09-2.86v-26.81a3 3 0 0 0 -1.23-2.42zm-40.77 42.69a.76.76 0 0 1 -1-.7v-8.3l14.69 4.67zm35-.7a.74.74 0 0 1 -.74.74c-.2 0 .56.22-13.94-4.38l14.68-4.66z" fill="#1aa400"/><path d="m46.92 8.13-14.92 5.8-14.92-5.8a3 3 0 0 0 -4.08 2.79c0 29.54-.26 27.66.64 28 24.47 9.52 16.25 6.28 18 7 .58.23-.83.63 18.75-7 .91-.35.64 1.45.64-28a3 3 0 0 0 -4.11-2.79zm.72 1.87a1 1 0 0 1 1.36.93v21.4c-12.53 4.87-14 5.06-15.87 7.14-.19.21-.13 2.73-.13-23.78zm-32.64.92a1 1 0 0 1 1.36-.92l14.64 5.68v23.93c-1.81-2.13-2.64-2.09-16-7.29zm0 23.54c11.89 4.63 14.74 4.91 15.79 9l-15.79-6.14zm34 2.86c-17.5 6.8-15.81 6.2-15.76 6a6.29 6.29 0 0 1 3.76-4.2l12-4.66z" fill="#ffc53e"/></g></svg>