<svg id="Capa_1" enable-background="new 0 0 512 512" height="512" viewBox="0 0 512 512" width="512" xmlns="http://www.w3.org/2000/svg"><g><g><path d="m104.476 43.866h303.049v424.268h-303.049z" fill="#fc8086"/></g><g><path d="m387.321 43.866h20.203v424.268h-20.203z" fill="#fb636f"/></g><g><path d="m74.171 134.78h363.659v242.439h-363.659z" fill="#99f5d2" transform="matrix(0 1 -1 0 512 0)"/></g><g><g><path d="m357.016 74.171h20.203v363.659h-20.203z" fill="#00f0a3"/></g></g><g><path d="m165.085 407.524v-185.189c0-32.178 15.33-62.431 41.279-81.46l49.636-36.4 49.636 36.4c25.949 19.029 41.279 49.282 41.279 81.46v185.189z" fill="#fcee56"/></g><g><path d="m134.78 199.571c-4.142 0-7.5 3.358-7.5 7.5v230.758c0 4.142 3.358 7.5 7.5 7.5h242.44c4.142 0 7.5-3.358 7.5-7.5v-363.658c0-4.142-3.358-7.5-7.5-7.5h-242.44c-4.142 0-7.5 3.358-7.5 7.5v97.829c0 4.142 3.358 7.5 7.5 7.5s7.5-3.358 7.5-7.5v-90.329h227.44v348.658h-227.44v-223.258c0-4.142-3.358-7.5-7.5-7.5z"/><path d="m346.915 263.5c4.142 0 7.5-3.358 7.5-7.5v-33.665c0-34.432-16.577-67.146-44.344-87.508l-49.636-36.399c-2.64-1.937-6.23-1.937-8.87 0l-49.636 36.399c-27.767 20.362-44.344 53.076-44.344 87.508v185.189c0 4.142 3.358 7.5 7.5 7.5h181.829c4.142 0 7.5-3.358 7.5-7.5v-116.435c0-4.142-3.358-7.5-7.5-7.5s-7.5 3.358-7.5 7.5v108.935h-166.829v-177.689c0-29.673 14.286-57.864 38.214-75.412l45.201-33.147 45.201 33.147c23.928 17.548 38.214 45.739 38.214 75.412v33.665c0 4.142 3.357 7.5 7.5 7.5z"/><path d="m407.524 0c-4.142 0-7.5 3.358-7.5 7.5v28.866h-22.881v-28.866c0-4.142-3.358-7.5-7.5-7.5s-7.5 3.358-7.5 7.5v28.866h-22.881v-28.866c0-4.142-3.358-7.5-7.5-7.5s-7.5 3.358-7.5 7.5v28.866h-22.881v-28.866c0-4.142-3.358-7.5-7.5-7.5s-7.5 3.358-7.5 7.5v28.866h-22.881v-28.866c0-4.142-3.358-7.5-7.5-7.5s-7.5 3.358-7.5 7.5v28.866h-22.881v-28.866c0-4.142-3.358-7.5-7.5-7.5s-7.5 3.358-7.5 7.5v28.866h-22.881v-28.866c0-4.142-3.358-7.5-7.5-7.5s-7.5 3.358-7.5 7.5v28.866h-22.881v-28.866c0-4.142-3.358-7.5-7.5-7.5s-7.5 3.358-7.5 7.5v28.866h-22.881v-28.866c0-4.142-3.358-7.5-7.5-7.5s-7.5 3.358-7.5 7.5v497c0 4.142 3.358 7.5 7.5 7.5s7.5-3.358 7.5-7.5v-28.866h22.881v28.866c0 4.142 3.358 7.5 7.5 7.5s7.5-3.358 7.5-7.5v-28.866h22.881v28.866c0 4.142 3.358 7.5 7.5 7.5s7.5-3.358 7.5-7.5v-28.866h22.881v28.866c0 4.142 3.358 7.5 7.5 7.5s7.5-3.358 7.5-7.5v-28.866h22.881v28.866c0 4.142 3.358 7.5 7.5 7.5s7.5-3.358 7.5-7.5v-28.866h22.881v28.866c0 4.142 3.358 7.5 7.5 7.5s7.5-3.358 7.5-7.5v-28.866h22.881v28.866c0 4.142 3.358 7.5 7.5 7.5s7.5-3.358 7.5-7.5v-28.866h22.881v28.866c0 4.142 3.358 7.5 7.5 7.5s7.5-3.358 7.5-7.5v-28.866h22.881v28.866c0 4.142 3.358 7.5 7.5 7.5s7.5-3.358 7.5-7.5v-295.214c0-4.142-3.358-7.5-7.5-7.5s-7.5 3.358-7.5 7.5v251.349h-288.048v-409.269h288.049v122.839c0 4.142 3.358 7.5 7.5 7.5s7.5-3.358 7.5-7.5v-166.705c-.001-4.142-3.358-7.5-7.501-7.5z"/></g></g></svg>