<svg height="512" viewBox="0 0 64 64" width="512" xmlns="http://www.w3.org/2000/svg"><g id="sajadah"><g fill="#ffc53e"><path d="m35 39h-18a1 1 0 0 1 -1-1v-4.31c-4.06-2.63-3.92-8.15.08-10.27 10.06-5.28 9.69-5.29 10.34-5l9.47 4.94c3.89 2.05 4.34 7.51.11 10.29v4.35a1 1 0 0 1 -1 1zm-17-2h16c0-5.54-.24-4 1.27-5.24a3.9 3.9 0 0 0 1.73-3.22 3.76 3.76 0 0 0 -2-3.35l-9-4.7c-9.73 5.1-9.68 4.88-10.41 6.09a3.76 3.76 0 0 0 .83 4.87c1.95 1.66 1.58-.02 1.58 5.55z"/><path d="m47 46h-18a1 1 0 0 1 -1-1c0-4.06.2-4.63-.59-5.41a2 2 0 0 0 -1.41-.59 1 1 0 0 1 0-2h18a4 4 0 0 1 4 4v4a1 1 0 0 1 -1 1zm-17-2h16v-3a2 2 0 0 0 -2-2h-14.54c.65 1.12.54 1.67.54 5z"/><path d="m10 12v-4a1 1 0 0 1 2 0v4a1 1 0 0 1 -2 0z"/><path d="m16 12v-4a1 1 0 0 1 2 0v4a1 1 0 0 1 -2 0z"/><path d="m24 8v4a1 1 0 0 1 -2 0v-4a1 1 0 0 1 2 0z"/><path d="m30 8v4a1 1 0 0 1 -2 0v-4a1 1 0 0 1 2 0z"/><path d="m36 8v4a1 1 0 0 1 -2 0v-4a1 1 0 0 1 2 0z"/><path d="m42 8v4a1 1 0 0 1 -2 0v-4a1 1 0 0 1 2 0z"/><path d="m24 52v4a1 1 0 0 1 -2 0v-4a1 1 0 0 1 2 0z"/><path d="m30 52v4a1 1 0 0 1 -2 0v-4a1 1 0 0 1 2 0z"/><path d="m36 52v4a1 1 0 0 1 -2 0v-4a1 1 0 0 1 2 0z"/><path d="m42 52v4a1 1 0 0 1 -2 0v-4a1 1 0 0 1 2 0z"/><path d="m46 56v-4a1 1 0 0 1 2 0v4a1 1 0 0 1 -2 0z"/><path d="m52 56v-4a1 1 0 0 1 2 0v4a1 1 0 0 1 -2 0z"/><path d="m40 53v2l-2.5 2.5a21.92 21.92 0 0 1 -31 0c-8.06-8.06-9.24-21.76.5-31.5v17a4 4 0 0 0 4 4h8v2a4 4 0 0 0 3 3.87v3.13a1 1 0 0 0 2 0v-3h4v3a1 1 0 0 0 2 0v-3h4v3a1 1 0 0 0 2 0v-3z" opacity=".3"/><path d="m63.92 22a21.85 21.85 0 0 1 -6.42 15.5l-1.22 1.22a4 4 0 0 0 -3.28-1.72h-8v-22a4 4 0 0 0 -3-3.87v-3.13a1 1 0 0 0 -2 0v3h-4v-3a1 1 0 0 0 -2 0v3h-4v-3a1 1 0 0 0 -2 0v3h-4v-2l2.5-2.5c13.85-13.85 37.42-3.85 37.42 15.5z" opacity=".3"/></g><path d="m13 41v2zm-1.18 3.82a2 2 0 0 0 1.18-1.72 2.24 2.24 0 0 1 -1.18 1.72zm30.18-33.69c-.66-.19 1.94-.13-31-.13a4 4 0 0 0 -4 4v28a4 4 0 0 0 7.89.81 12.32 12.32 0 0 0 .11-2.81 2 2 0 0 1 2-2h27a1 1 0 0 0 1-1v-23a4 4 0 0 0 -3-3.87zm-25 25.87a4 4 0 0 0 -4 4v2.1a2 2 0 0 1 -4-.1v-28a2 2 0 0 1 2-2h30a2 2 0 0 1 2 2v22zm-5.18 7.82a2 2 0 0 0 1.18-1.72 2.24 2.24 0 0 1 -1.18 1.72zm1.18-3.82v2z" fill="#1aa400"/><path d="m23 51a2 2 0 0 1 -2-2v-8a4 4 0 0 0 -.54-2h-3.46a2 2 0 0 1 2 2v8a4 4 0 0 0 3 3.87c.66.19-.54.13 18 .13v-1a1 1 0 0 1 1-1zm3-14h-9a4 4 0 0 1 3.46 2h5.54a1 1 0 0 1 0-2zm30.28 1.72a4 4 0 0 0 -3.28-1.72h-36a1 1 0 0 0 0 2 2.1 2.1 0 0 1 1.41.59c.8.8.59.73.59 9.41a4 4 0 0 0 4 4c32.74 0 30.33.06 31-.13a4 4 0 0 0 3-3.87c0-8.54.23-8.91-.72-10.28zm-1.28 10.28a2 2 0 0 1 -2 2h-30a2 2 0 0 1 -2-2v-8a4 4 0 0 0 -.54-2h32.54a2 2 0 0 1 1.82 1.18c.28.58.18.45.18 8.82zm-29-12h-9a4 4 0 0 1 3.46 2h5.54a1 1 0 0 1 0-2z" fill="#1aa400"/><path d="m21 40.47a4 4 0 0 0 -7-2.14c-1.21 1.37-1 2.67-1 4.77a2 2 0 0 1 -2 1.9 1 1 0 0 0 0 2h9a1 1 0 0 0 1-1c0-5.28 0-5.19 0-5.53zm-2 4.53h-4.54c1.16-2-.1-4 1.06-5.34a2 2 0 0 1 2.89-.07c.77.77.59 1.24.59 5.41z" fill="#1aa400"/></g></svg>